HIERARCHY
ROOT Hips
{
	OFFSET 0.00 0.00 0.00
	CHANNELS 6 Xposition Yposition Zposition Xrotation Yrotation Zrotation
	JOINT LeftUpLeg
	{
		OFFSET 3.29906 0.00000 0.00000
		CHANNELS 3 Xrotation Yrotation Zrotation
		JOINT LeftLeg
		{
			OFFSET 0.00000 -16.90256 0.00000
			CHANNELS 3 Xrotation Yrotation Zrotation
			JOINT LeftFoot
			{
				OFFSET 0.00000 -16.69398 0.00000
				CHANNELS 3 Xrotation Yrotation Zrotation
				JOINT LeftToeBase
				{
					OFFSET 0.00000 -1.46932 5.48360
					CHANNELS 3 Xrotation Yrotation Zrotation
					End Site
					{
						OFFSET 0.00000 0.00000 2.95275
					}
				}
			}
		}
	}
	JOINT RightUpLeg
	{
		OFFSET -3.29906 0.00000 0.00000
		CHANNELS 3 Xrotation Yrotation Zrotation
		JOINT RightLeg
		{
			OFFSET 0.00000 -16.90256 0.00000
			CHANNELS 3 Xrotation Yrotation Zrotation
			JOINT RightFoot
			{
				OFFSET 0.00000 -16.69398 0.00000
				CHANNELS 3 Xrotation Yrotation Zrotation
				JOINT RightToeBase
				{
					OFFSET 0.00000 -1.46932 5.48360
					CHANNELS 3 Xrotation Yrotation Zrotation
					End Site
					{
						OFFSET 0.00000 0.00000 2.95275
					}
				}
			}
		}
	}
	JOINT Spine
	{
		OFFSET 0.00000 0.03937 0.00000
		CHANNELS 3 Xrotation Yrotation Zrotation
		JOINT Spine1
		{
			OFFSET 0.00000 7.07715 0.00000
			CHANNELS 3 Xrotation Yrotation Zrotation
			JOINT Neck
			{
				OFFSET 0.00000 9.58345 0.00000
				CHANNELS 3 Xrotation Yrotation Zrotation
				JOINT Head
				{
					OFFSET 0.00000 6.23786 0.00000
					CHANNELS 3 Xrotation Yrotation Zrotation
					End Site
					{
						OFFSET 0.00000 4.52755 0.00000
					}
				}
			}
			JOINT LeftShoulder
			{
				OFFSET 0.00000 9.58345 0.00000
				CHANNELS 3 Xrotation Yrotation Zrotation
				JOINT LeftArm
				{
					OFFSET 7.67467 -0.00003 0.00000
					CHANNELS 3 Xrotation Yrotation Zrotation
					JOINT LeftForeArm
					{
						OFFSET 12.04206 -0.00004 0.00000
						CHANNELS 3 Xrotation Yrotation Zrotation
						JOINT LeftHand
						{
							OFFSET 9.71053 -0.00004 0.00000
							CHANNELS 3 Xrotation Yrotation Zrotation
							JOINT LeftHandThumb
							{
								OFFSET 0.00000 0.00000 0.00000
								CHANNELS 3 Xrotation Yrotation Zrotation
								End Site
								{
									OFFSET 0.00000 0.00000 3.93700
								}
							}
							JOINT L_Wrist_End
							{
								OFFSET 3.93700 -0.00001 0.00000
								CHANNELS 3 Xrotation Yrotation Zrotation
							}
						}
					}
				}
			}
			JOINT RightShoulder
			{
				OFFSET 0.00000 9.58345 0.00000
				CHANNELS 3 Xrotation Yrotation Zrotation
				JOINT RightArm
				{
					OFFSET -7.67467 -0.00003 0.00000
					CHANNELS 3 Xrotation Yrotation Zrotation
					JOINT RightForeArm
					{
						OFFSET -12.04206 -0.00004 0.00000
						CHANNELS 3 Xrotation Yrotation Zrotation
						JOINT RightHand
						{
							OFFSET -9.71053 -0.00004 0.00000
							CHANNELS 3 Xrotation Yrotation Zrotation
							JOINT RightHandThumb
							{
								OFFSET 0.00000 0.00000 0.00000
								CHANNELS 3 Xrotation Yrotation Zrotation
								End Site
								{
									OFFSET 0.00000 0.00000 3.93700
								}
							}
							JOINT R_Wrist_End
							{
								OFFSET -5.39369 -0.00002 0.00000
								CHANNELS 3 Xrotation Yrotation Zrotation
							}
						}
					}
				}
			}
		}
	}
}
MOTION
Frames: 19
Frame Time: 0.008333
 -72.3415 64.8469 3.3972 -38.2266 87.8975 34.9034 3.9630 12.6857 11.2895 7.3001 0.0000 -0.0000 -2.4857 -10.3080 2.6005 -13.3964 0.0000 -0.0000 4.2712 -1.0725 -3.1811 9.2280 -0.0000 0.0000 -5.9416 -7.0874 0.0740 -19.5653 -0.0000 -0.0000 -7.9866 0.2907 -0.2877 18.3469 -4.0937 2.1452 -12.7311 20.7463 3.7799 8.1298 -1.8202 2.0771 19.9478 23.2974 8.1297 -19.0888 -38.6615 -90.4842 -0.0001 -33.1443 -0.0000 -10.9763 -8.0566 -0.9511 0.0000 0.0000 -0.0000 0.0000 0.0000 -0.0000 18.9825 -15.3972 -7.0806 -28.4989 38.8576 92.7892 -0.0001 15.8649 0.0000 -13.3006 7.1391 10.4359 -0.0000 0.0000 -0.0000 -0.0000 0.0000 -0.0000
 -72.3444 64.8390 3.3912 -38.0046 87.9061 34.6661 3.9413 12.6623 11.2969 7.3605 0.0000 -0.0000 -2.6723 -10.2609 2.5745 -13.3970 -0.0000 -0.0000 4.2240 -0.9873 -3.1632 9.4160 0.0000 0.0000 -6.2343 -7.2405 0.5778 -19.3971 0.0000 0.0000 -7.9878 0.2852 -0.2834 18.3522 -4.0923 2.1595 -12.9230 20.6919 3.7595 9.0770 -1.6412 2.3705 19.8657 23.2463 8.1995 -19.0422 -38.6770 -90.2935 -0.0001 -33.2577 -0.0000 -10.3281 -7.8938 -1.2955 0.0000 0.0000 -0.0000 0.0000 0.0000 -0.0000 18.8703 -15.3506 -7.1637 -28.4962 38.9219 92.7631 -0.0001 16.0336 0.0000 -12.9162 7.0922 10.2879 0.0000 -0.0000 -0.0000 0.0000 -0.0000 -0.0000
 -72.3565 64.8252 3.3858 -34.2864 87.9655 30.9568 3.7629 12.6144 11.2858 7.4893 -0.0000 0.0000 -2.9363 -10.1603 2.5964 -13.3252 -0.0000 -0.0000 3.9946 -0.7217 -3.1827 9.7927 -0.0000 0.0000 -7.7848 -7.5648 3.2994 -15.4413 0.0000 -0.0000 -7.9595 0.3104 -0.2928 18.1145 -4.0544 2.1657 -12.8644 20.5118 3.7025 9.8054 -1.4155 2.5975 19.8843 23.1409 8.3095 -19.0050 -38.6875 -90.1106 -0.0001 -33.4105 -0.0000 -9.6836 -7.7482 -1.5847 -0.0000 -0.0000 -0.0000 -0.0000 -0.0000 -0.0000 18.9765 -15.3896 -7.2195 -28.6424 39.1559 92.7456 -0.0001 16.2365 0.0000 -12.5889 7.0551 10.1064 -0.0000 0.0000 -0.0000 -0.0000 0.0000 -0.0000
 -72.3695 64.8103 3.3800 -30.1530 88.0106 26.8335 3.5717 12.5629 11.2760 7.6614 0.0000 0.0000 -3.2523 -10.0459 2.5423 -13.2471 0.0000 -0.0000 3.7277 -0.5080 -3.2086 10.2078 -0.0000 0.0000 -9.1082 -7.8843 5.5139 -12.3875 0.0000 0.0000 -7.9031 0.3295 -0.3068 17.8468 -4.0259 2.1646 -12.8089 20.4005 3.6840 10.5159 -1.2450 2.7982 19.9076 23.0718 8.4307 -18.9413 -38.6628 -89.9334 -0.0001 -33.6187 -0.0000 -9.0674 -7.6074 -1.8798 0.0000 0.0000 0.0000 0.0000 0.0000 0.0000 19.0502 -15.3649 -7.3231 -28.6754 39.3107 92.6993 -0.0001 16.5290 0.0000 -12.3407 7.0532 9.9545 -0.0000 -0.0000 -0.0000 -0.0000 -0.0000 -0.0000
 -72.3879 64.7969 3.3746 -25.0567 88.0880 21.7291 3.2905 12.4667 11.2956 7.9161 0.0000 -0.0000 -3.5732 -9.9253 2.4978 -13.2539 -0.0000 -0.0000 3.3809 -0.4398 -3.2066 10.5456 0.0000 -0.0000 -9.3714 -7.9877 5.3414 -12.8918 0.0000 0.0000 -7.9021 0.3002 -0.3286 17.6975 -4.0520 2.1686 -12.9553 20.3842 3.7919 11.3060 -1.0995 2.9130 19.7934 23.1436 8.5551 -18.8292 -38.7017 -89.7694 -0.0001 -33.8728 -0.0000 -8.5928 -7.4302 -2.0438 -0.0000 0.0000 -0.0000 -0.0000 0.0000 -0.0000 18.9759 -15.3594 -7.4091 -28.6828 39.6904 92.6225 -0.0001 16.8247 0.0000 -12.2983 7.1032 9.9451 -0.0000 0.0000 -0.0000 -0.0000 0.0000 -0.0000
 -72.4062 64.7825 3.3672 -18.9991 88.1545 15.6683 2.9934 12.3701 11.3097 8.1657 0.0000 -0.0000 -3.8485 -9.8158 2.4850 -13.2481 -0.0000 -0.0000 3.0004 -0.4404 -3.2132 10.9037 -0.0000 0.0000 -9.5791 -8.0208 5.0680 -13.5032 0.0000 0.0000 -7.9456 0.2798 -0.3523 17.5902 -4.0648 2.1803 -12.9511 20.3551 3.8545 11.8064 -1.0006 2.9990 19.7479 23.1752 8.6810 -18.7223 -38.6120 -89.6030 -0.0001 -34.2388 -0.0000 -8.1379 -7.2214 -2.2524 -0.0000 0.0000 -0.0000 -0.0000 0.0000 -0.0000 18.9725 -15.3651 -7.5098 -28.7395 40.0223 92.5380 -0.0001 17.1911 0.0000 -12.3266 7.1360 10.0197 0.0000 0.0000 -0.0000 0.0000 0.0000 -0.0000
 -72.4261 64.7667 3.3599 -12.4944 88.1910 9.1544 2.6905 12.2609 11.3350 8.4181 -0.0000 0.0000 -4.0948 -9.7187 2.4833 -13.2745 0.0000 0.0000 2.6155 -0.4427 -3.2164 11.2495 -0.0000 0.0000 -9.7621 -8.0304 4.8011 -14.1013 0.0000 0.0000 -7.9444 0.3274 -0.3207 17.4369 -4.0385 2.1478 -12.9827 20.2472 3.8713 12.3337 -0.9242 3.1150 19.6769 23.1034 8.8636 -18.5303 -38.5741 -89.3775 -0.0001 -34.6964 -0.0000 -7.7685 -7.0147 -2.3119 0.0000 0.0000 -0.0000 0.0000 0.0000 -0.0000 18.9744 -15.4904 -7.5522 -28.7595 40.3269 92.4457 -0.0001 17.6106 0.0000 -12.4393 7.1776 10.1484 -0.0000 -0.0000 -0.0000 -0.0000 -0.0000 -0.0000
 -72.4453 64.7498 3.3500 -5.7989 88.1998 2.4726 2.3986 12.1668 11.3292 8.6430 0.0000 0.0000 -4.3376 -9.6297 2.4927 -13.2132 0.0000 0.0000 2.2367 -0.1958 -3.2780 11.7869 -0.0000 0.0000 -11.1120 -8.2450 7.2069 -10.7683 -0.0000 0.0000 -7.9456 0.3268 -0.3438 17.2937 -4.0307 2.1552 -12.8281 20.2532 3.8860 12.5298 -0.8749 3.1216 19.6993 23.0717 9.0052 -18.3383 -38.3721 -89.1781 -0.0001 -35.2408 -0.0000 -7.4353 -6.8834 -2.4643 0.0000 -0.0000 0.0000 0.0000 -0.0000 0.0000 19.0807 -15.5216 -7.6549 -28.8184 40.5114 92.3269 -0.0001 18.1221 0.0000 -12.4573 7.1630 10.3849 -0.0000 -0.0000 -0.0000 -0.0000 -0.0000 -0.0000
 -72.4670 64.7328 3.3395 1.6933 88.1821 -5.0085 2.0909 12.0652 11.3198 8.8175 -0.0000 0.0000 -4.5357 -9.5351 2.4799 -13.1423 0.0000 0.0000 1.8315 -0.0735 -3.3278 12.2169 0.0000 -0.0000 -12.0504 -8.3849 8.7440 -8.7011 0.0000 -0.0000 -7.9520 0.3250 -0.3669 17.1482 -4.0177 2.1735 -12.6743 20.2349 3.8763 12.6727 -0.8598 3.1221 19.8076 23.0406 9.1175 -18.1688 -38.2059 -88.9513 -0.0002 -35.8699 -0.0000 -7.2755 -6.8083 -2.4726 0.0000 0.0000 0.0000 0.0000 0.0000 0.0000 19.1941 -15.5116 -7.7835 -28.8202 40.6868 92.1799 -0.0001 18.6957 0.0000 -12.6034 7.3110 10.5411 0.0000 -0.0000 0.0000 0.0000 -0.0000 0.0000
 -72.4910 64.7176 3.3279 10.2556 88.1322 -13.5630 1.7496 11.9486 11.3025 8.9392 -0.0000 -0.0000 -4.6819 -9.4048 2.4387 -13.1548 -0.0000 0.0000 1.3990 -0.1204 -3.3535 12.4643 0.0000 0.0000 -12.1920 -8.3288 8.5075 -9.2588 0.0000 -0.0000 -8.0337 0.2991 -0.3985 17.1239 -4.0351 2.1918 -12.6431 20.3099 3.9534 12.7834 -0.8634 3.0499 19.8211 23.1233 9.2306 -17.9887 -38.2368 -88.7324 -0.0002 -36.5100 -0.0001 -7.3515 -6.7873 -2.2065 -0.0000 -0.0000 0.0000 -0.0000 -0.0000 0.0000 19.1521 -15.5031 -7.8778 -28.6126 41.4321 91.8695 -0.0001 19.5207 0.0000 -13.2031 7.4107 10.2737 -0.0000 0.0000 -0.0000 -0.0000 0.0000 -0.0000
 -72.5135 64.7035 3.3154 17.7344 88.0486 -21.0283 1.4571 11.8157 11.2690 8.9905 0.0000 0.0000 -4.7712 -9.2657 2.4390 -13.1639 0.0000 0.0000 1.0028 -0.1511 -3.3818 12.6573 -0.0000 0.0000 -12.3001 -8.2989 8.2373 -9.8177 0.0000 0.0000 -8.0899 0.3018 -0.4107 17.1146 -4.0403 2.1854 -12.6590 20.3455 4.0232 12.8872 -0.8750 2.9905 19.8932 23.1874 9.3293 -17.8091 -38.3130 -88.4692 -0.0002 -37.2468 -0.0001 -7.5676 -6.8183 -1.8280 0.0000 0.0000 -0.0000 0.0000 0.0000 -0.0000 19.1350 -15.5695 -7.9122 -28.3937 42.3745 91.4981 -0.0001 20.3867 0.0000 -13.8914 7.5598 9.9071 -0.0000 0.0000 0.0000 -0.0000 0.0000 0.0000
 -72.5338 64.6905 3.3045 24.3940 87.9451 -27.7011 1.1845 11.7003 11.2658 8.9921 -0.0000 0.0000 -4.8342 -9.1555 2.4410 -13.1633 -0.0000 0.0000 0.6401 -0.1743 -3.3718 12.7922 0.0000 -0.0000 -12.3552 -8.2954 7.8749 -10.4142 0.0000 -0.0000 -8.1726 0.3164 -0.3836 17.1548 -4.0568 2.1557 -12.6524 20.3926 4.1052 12.9158 -0.9321 2.9024 19.9463 23.1908 9.4726 -17.4819 -38.2640 -88.1450 -0.0002 -38.1707 -0.0001 -7.7897 -6.7984 -1.5526 0.0000 -0.0000 -0.0000 0.0000 -0.0000 -0.0000 19.1774 -15.6259 -7.9380 -28.1696 43.1959 91.1059 -0.0001 21.3256 0.0000 -14.6753 7.7607 9.5464 -0.0000 0.0000 -0.0000 -0.0000 0.0000 -0.0000
 -72.5527 64.6783 3.2930 29.4706 87.8064 -32.7986 0.9485 11.6215 11.2711 8.9698 0.0000 -0.0000 -4.8867 -9.0778 2.4306 -13.1035 0.0000 -0.0000 0.2973 -0.0671 -3.3608 13.0270 0.0000 -0.0000 -13.0554 -8.5067 9.0491 -8.6848 -0.0000 0.0000 -8.1831 0.3255 -0.3835 17.1071 -4.0251 2.1983 -12.5170 20.4271 4.0995 12.8449 -0.9744 2.8312 20.1472 23.1548 9.5482 -17.1744 -38.1809 -87.7978 -0.0002 -39.1263 -0.0001 -8.0470 -6.9753 -1.3359 0.0000 -0.0000 0.0000 0.0000 -0.0000 0.0000 19.3674 -15.6731 -8.0106 -28.0761 43.5313 90.8035 -0.0001 22.1783 0.0000 -15.0221 7.9640 9.4836 -0.0000 -0.0000 0.0000 -0.0000 -0.0000 0.0000
 -72.5737 64.6682 3.2815 34.6681 87.6405 -38.0228 0.6640 11.5762 11.2822 8.9597 -0.0000 -0.0000 -4.9512 -9.0129 2.3852 -13.0680 0.0000 0.0000 -0.0778 -0.0448 -3.3272 13.1576 -0.0000 0.0000 -13.0472 -8.5464 8.6277 -9.3668 -0.0000 -0.0000 -8.1822 0.2665 -0.4148 17.0933 -4.0641 2.2417 -12.5869 20.5853 4.2409 12.8672 -1.0181 2.6878 20.2087 23.3563 9.5881 -16.7730 -38.2644 -87.4363 -0.0002 -40.1359 -0.0001 -8.3654 -7.0972 -1.0022 -0.0000 0.0000 0.0000 -0.0000 0.0000 0.0000 19.3726 -15.6085 -8.0825 -27.6484 44.2657 90.2701 -0.0001 23.2710 0.0000 -15.6700 8.1993 9.1554 -0.0000 -0.0000 0.0000 -0.0000 -0.0000 0.0000
 -72.5936 64.6594 3.2700 39.0710 87.4703 -42.4517 0.3786 11.5594 11.2972 8.9740 0.0000 -0.0000 -5.0104 -8.9664 2.3896 -13.0671 -0.0000 -0.0000 -0.4388 -0.0423 -3.2968 13.2996 0.0000 0.0000 -13.0343 -8.5537 8.1536 -10.0520 0.0000 -0.0000 -8.1589 0.2197 -0.4558 17.0724 -4.0724 2.3084 -12.6481 20.7165 4.3635 12.8758 -1.0730 2.5426 20.3024 23.4966 9.6304 -16.3360 -38.3277 -87.0471 -0.0002 -41.2029 -0.0001 -8.6368 -7.2642 -0.7116 0.0000 0.0000 -0.0000 0.0000 0.0000 -0.0000 19.4442 -15.6262 -8.1380 -27.2746 45.0971 89.7197 -0.0001 24.3777 0.0000 -16.4425 8.4466 8.7659 -0.0000 0.0000 -0.0000 -0.0000 0.0000 -0.0000
 -72.6109 64.6518 3.2596 42.4444 87.3096 -45.8524 0.1324 11.5689 11.3168 8.9839 0.0000 -0.0000 -5.0738 -8.9435 2.3809 -13.0679 0.0000 0.0000 -0.7552 -0.0227 -3.2615 13.4300 -0.0000 0.0000 -13.0120 -8.5864 7.6530 -10.7343 -0.0000 -0.0000 -8.0955 0.1557 -0.5078 17.0461 -4.0951 2.3781 -12.7072 20.8678 4.4994 12.8526 -1.1267 2.3914 20.4364 23.6855 9.6542 -15.9018 -38.3883 -86.6575 -0.0002 -42.2842 -0.0001 -8.9407 -7.5287 -0.4365 -0.0000 0.0000 -0.0000 -0.0000 0.0000 -0.0000 19.4819 -15.5945 -8.2008 -26.7846 45.8262 89.1072 -0.0001 25.5318 0.0000 -17.0951 8.6638 8.4789 -0.0000 0.0000 -0.0000 -0.0000 0.0000 -0.0000
 -72.6291 64.6444 3.2485 45.4590 87.1305 -48.8887 -0.1338 11.5972 11.3347 9.0229 -0.0000 -0.0000 -5.1532 -8.9469 2.3429 -13.0849 0.0000 -0.0000 -1.0918 0.0020 -3.2380 13.5902 0.0000 -0.0000 -13.0095 -8.6166 7.2590 -11.3619 0.0000 0.0000 -8.0077 0.0984 -0.5752 16.9889 -4.0922 2.4694 -12.7298 21.0014 4.6026 12.7850 -1.1702 2.2557 20.5444 23.8463 9.6934 -15.4060 -38.4108 -86.2663 -0.0002 -43.4021 -0.0001 -9.1716 -7.7616 -0.2893 -0.0000 -0.0000 -0.0000 -0.0000 -0.0000 -0.0000 19.5589 -15.6176 -8.2538 -26.3288 46.6133 88.4853 -0.0001 26.6675 0.0000 -17.8223 8.9389 8.0969 0.0000 -0.0000 0.0000 0.0000 -0.0000 0.0000
 -72.6437 64.6378 3.2382 47.9512 86.9751 -51.4024 -0.3801 11.6612 11.3603 9.0777 -0.0000 0.0000 -5.2337 -8.9875 2.3007 -13.0904 -0.0000 0.0000 -1.3894 0.0102 -3.2204 13.7531 0.0000 0.0000 -12.9693 -8.6115 6.8788 -11.9624 0.0000 0.0000 -7.8852 0.0321 -0.6501 16.9363 -4.0912 2.5706 -12.7515 21.1131 4.6805 12.6951 -1.1926 2.1371 20.6738 24.0430 9.7106 -14.9070 -38.5061 -85.8528 -0.0002 -44.5337 -0.0001 -9.4444 -7.9952 -0.0940 0.0000 -0.0000 -0.0000 0.0000 -0.0000 -0.0000 19.6206 -15.6137 -8.3443 -25.8302 47.2380 87.8829 -0.0001 27.7723 0.0000 -18.3968 9.2580 7.8099 -0.0000 -0.0000 -0.0000 -0.0000 -0.0000 -0.0000
 -72.6579 64.6322 3.2264 50.0224 86.8236 -53.5003 -0.6113 11.7405 11.3922 9.1229 -0.0000 -0.0000 -5.2690 -9.0631 2.2673 -13.0867 -0.0000 0.0000 -1.6632 -0.0091 -3.2040 13.8886 0.0000 0.0000 -12.9115 -8.5833 6.5527 -12.4730 0.0000 0.0000 -7.7265 -0.0421 -0.7175 16.8508 -4.0957 2.6769 -12.7514 21.2836 4.7914 12.5948 -1.2538 1.9591 20.8077 24.2115 9.7354 -14.3529 -38.5214 -85.4509 -0.0002 -45.6832 -0.0001 -9.6709 -8.2120 0.0274 -0.0000 -0.0000 -0.0000 -0.0000 -0.0000 -0.0000 19.6885 -15.5999 -8.4389 -25.3021 47.8278 87.2604 -0.0001 28.8959 0.0000 -18.9245 9.4679 7.4875 -0.0000 0.0000 -0.0000 -0.0000 0.0000 -0.0000
